<?xml version="1.0" encoding="UTF-8"?>
<svg xmlns="http://www.w3.org/2000/svg" viewBox="0 0 1208.47 727.81">
  <defs>
    <style>
      .cls-1 {
        stroke-width: 1.76px;
      }

      .cls-1, .cls-2, .cls-3, .cls-4, .cls-5, .cls-6, .cls-7, .cls-8 {
        stroke-miterlimit: 10;
      }

      .cls-1, .cls-2, .cls-7 {
        fill: none;
      }

      .cls-1, .cls-7 {
        stroke: #ed7100;
      }

      .cls-9, .cls-10, .cls-11, .cls-12, .cls-13, .cls-14, .cls-15, .cls-16 {
        stroke-width: 0px;
      }

      .cls-9, .cls-10, .cls-17 {
        fill: #ed7100;
      }

      .cls-9, .cls-11, .cls-16 {
        fill-rule: evenodd;
      }

      .cls-2 {
        stroke-width: 1.81px;
      }

      .cls-2, .cls-3, .cls-8 {
        stroke: #000;
      }

      .cls-3, .cls-5, .cls-16, .cls-8 {
        fill: #fff;
      }

      .cls-3, .cls-7 {
        stroke-width: 2px;
      }

      .cls-4 {
        stroke: #00a4a6;
        stroke-width: 2.14px;
      }

      .cls-4, .cls-12 {
        fill: #00a4a6;
      }

      .cls-4, .cls-18 {
        opacity: .3;
      }

      .cls-19, .cls-17, .cls-20, .cls-21, .cls-22 {
        font-family: DINCondensed-Bold, 'DIN Condensed';
        font-weight: 700;
      }

      .cls-19, .cls-17, .cls-20, .cls-22 {
        font-size: 24px;
      }

      .cls-19, .cls-13, .cls-6 {
        fill: #7aa116;
      }

      .cls-11, .cls-14, .cls-20 {
        fill: #8c4fff;
      }

      .cls-23 {
        letter-spacing: 0em;
      }

      .cls-24 {
        letter-spacing: 0em;
      }

      .cls-25 {
        letter-spacing: .02em;
      }

      .cls-26 {
        letter-spacing: -.04em;
      }

      .cls-5 {
        stroke: #8c4fff;
        stroke-width: 1.81px;
      }

      .cls-6 {
        stroke: #7aa116;
        stroke-width: 1.08px;
      }

      .cls-15 {
        fill: #242f3e;
      }

      .cls-21 {
        fill: #000;
        font-size: 20px;
      }

      .cls-8 {
        stroke-width: 1.85px;
      }

      .cls-22 {
        fill: #099;
      }
    </style>
  </defs>
  <g id="private_subnet" data-name="private subnet">
    <g id="vpc">
      <rect class="cls-5" x="60.91" y="61.91" width="986" height="644"/>
      <g id="Icon-Architecture-Group_32_Virtual-private-cloud-VPC_32" data-name="Icon-Architecture-Group/32/Virtual-private-cloud-VPC_32">
        <rect id="Rectangle" class="cls-14" x="59.74" y="60.87" width="50" height="50"/>
        <path id="Fill-1" class="cls-16" d="M98.45,87.15l-3.68-1.58v13.11c3.18-.44,3.67-3.71,3.69-3.86v-7.67ZM93.52,98.7v-13.14l-3.79,1.59v7.75c.02.07.56,3.46,3.79,3.79h0ZM93.9,84.05c.15-.07.33-.07.49,0l4.93,2.12c.23.1.38.32.38.57v8.17c-.23,1.81-1.7,5.08-5.66,5.08s-5.32-3.26-5.56-4.99v-8.25c0-.25.15-.48.38-.58l5.04-2.11ZM100.96,84.85l-6.83-3.01-6.91,2.91v8.91c0,.05-.07,3.59,2.07,5.78,1.15,1.18,2.74,1.77,4.74,1.77s3.61-.6,4.77-1.78c2.17-2.2,2.15-5.73,2.15-5.77v-8.82ZM99.71,100.3c-1.41,1.43-3.32,2.16-5.67,2.16s-4.26-.73-5.65-2.16c-2.51-2.58-2.42-6.5-2.42-6.66v-9.31c0-.25.15-.48.38-.58l7.54-3.17c.16-.07.34-.07.49,0l7.45,3.28c.23.1.37.32.37.57v9.22c0,.16.03,4.07-2.5,6.65h0ZM73.48,91.16h10v1.25h-10c-3.51,0-6.01-2.52-6.22-6.27-.02-.14-.02-.31-.02-.47,0-3.14,1.65-5.28,4.77-6.22-.02-.28-.04-.58-.04-.81,0-3.65,1.97-6.81,5.02-8.06,4.12-1.69,8.8-1.12,11.38,1.38.93.9,1.66,1.93,2.2,3.11.76-.56,1.75-.83,2.94-.77,2.22.11,3.94,2.14,4.29,5.01,1.87.16,3.11,1.1,3.76,2.89l-1.17.43c-.54-1.45-1.51-2.09-3.16-2.09-.33,0-.6-.26-.62-.59-.17-2.92-1.76-4.33-3.16-4.4-1.18-.07-2.06.27-2.6.99-.14.18-.36.27-.59.24-.23-.03-.42-.19-.49-.4-.5-1.38-1.24-2.53-2.26-3.52-2.24-2.16-6.36-2.62-10.04-1.12-2.58,1.06-4.24,3.76-4.24,6.9,0,.34.04.87.08,1.2.04.31-.16.61-.47.68-2.88.71-4.34,2.45-4.34,5.15,0,.13,0,.25.01.38.18,3.12,2.13,5.12,4.98,5.12h0Z"/>
      </g>
      <text class="cls-20" transform="translate(119.6 92.4)"><tspan x="0" y="0">VPC</tspan></text>
    </g>
    <g id="aws">
      <rect class="cls-2" x=".91" y=".91" width="1062" height="726"/>
      <g id="Icon-Architecture-Group_32_AWS-Cloud-logo_32" data-name="Icon-Architecture-Group/32/AWS-Cloud-logo_32">
        <rect id="Rectangle-2" data-name="Rectangle" class="cls-15" x=".24" y=".37" width="50" height="50"/>
        <path id="Fill-1-2" data-name="Fill-1" class="cls-16" d="M41.11,30.24c.45.59-.5,3-.93,4.08-.13.33.15.46.44.21,1.89-1.61,2.38-4.97,1.99-5.45-.38-.48-3.69-.9-5.7.54-.31.22-.26.53.09.49,1.14-.14,3.66-.45,4.11.14h0ZM40.06,32.75c.65-.47.09-1.18-.57-.9-4.39,1.83-9.16,2.72-13.5,2.72-6.43,0-12.66-1.74-17.69-4.62-.44-.25-.77.19-.4.52,4.67,4.14,10.84,6.64,17.68,6.64,4.89,0,10.56-1.51,14.48-4.35h0ZM37.38,26.23c-.62,0-1.23-.07-1.82-.2-.59-.14-1.05-.29-1.37-.47-.19-.11-.32-.22-.36-.32-.05-.11-.07-.22-.07-.33v-.59c0-.24.09-.37.27-.37.07,0,.14.02.22.04.08.03.18.07.3.12.4.18.83.31,1.31.4.47.09.94.14,1.41.14.75,0,1.32-.13,1.73-.38.41-.26.61-.62.61-1.09,0-.33-.11-.59-.32-.81-.21-.22-.61-.42-1.19-.61l-1.72-.53c-.87-.27-1.5-.66-1.9-1.17-.39-.52-.59-1.07-.59-1.68,0-.48.11-.91.32-1.28.21-.37.49-.69.84-.95.36-.26.77-.46,1.24-.6.47-.13.96-.2,1.49-.2.26,0,.53.02.8.05.27.03.52.08.76.13.24.06.47.12.67.18.21.07.37.14.5.2.16.09.28.19.35.28.07.09.1.22.1.38v.54c0,.24-.09.36-.27.36-.1,0-.25-.05-.46-.14-.67-.3-1.44-.44-2.28-.44-.68,0-1.2.11-1.58.32-.37.22-.56.56-.56,1.03,0,.32.12.6.35.82.23.22.67.44,1.31.64l1.68.53c.86.27,1.47.64,1.83,1.11.37.47.55,1.01.55,1.62,0,.5-.1.95-.31,1.35-.21.4-.49.74-.86,1.02-.37.28-.8.5-1.31.65-.51.15-1.07.22-1.68.22h0ZM22.17,25.93c-.21,0-.36-.03-.46-.11-.1-.08-.18-.23-.25-.46l-2.78-8.95c-.07-.23-.1-.38-.1-.46,0-.19.1-.28.29-.28h1.16c.22,0,.38.04.47.11.09.07.17.22.24.45l1.99,7.65,1.85-7.65c.06-.23.13-.38.23-.45.1-.08.26-.11.48-.11h.96c.22,0,.38.04.48.11.1.07.17.22.23.45l1.87,7.75,2.05-7.75c.07-.23.15-.38.24-.45.09-.08.24-.11.47-.11h1.1c.2,0,.29.1.29.28,0,.05,0,.11-.02.18-.02.07-.04.16-.09.28l-2.86,8.95c-.07.23-.15.38-.25.46-.1.07-.25.11-.46.11h-1.02c-.22,0-.38-.04-.47-.12-.1-.08-.17-.24-.23-.47l-1.84-7.45-1.82,7.45c-.06.23-.13.38-.23.47-.1.08-.26.12-.48.12h-1.02ZM12.66,24.68c.39,0,.79-.07,1.22-.21.43-.14.8-.39,1.12-.74.2-.22.33-.46.41-.74.08-.28.11-.61.11-1v-.49c-.34-.08-.71-.14-1.09-.19-.38-.05-.75-.07-1.11-.07-.79,0-1.38.15-1.76.47-.39.31-.58.75-.58,1.34,0,.54.15.95.44,1.22s.71.41,1.24.41h0ZM17.47,22.92c0,.43.04.77.13,1.03.09.26.22.53.38.83.06.1.08.18.08.26,0,.12-.08.24-.23.34l-.75.49c-.11.07-.21.1-.31.1-.13,0-.24-.05-.35-.16-.17-.16-.31-.34-.42-.54-.12-.2-.24-.42-.36-.68-.93,1.07-2.08,1.6-3.48,1.6-1,0-1.78-.27-2.36-.83-.58-.55-.87-1.3-.87-2.23,0-.98.36-1.78,1.08-2.38.72-.6,1.69-.9,2.9-.9.4,0,.82.03,1.25.09.43.06.89.15,1.35.25v-.85c0-.88-.18-1.5-.56-1.85-.37-.36-1.01-.54-1.92-.54-.42,0-.84.05-1.28.15-.43.1-.86.23-1.27.39-.19.08-.33.13-.41.15-.08.02-.14.03-.19.03-.16,0-.25-.12-.25-.36v-.57c0-.19.03-.33.09-.4.05-.08.16-.16.33-.24.41-.2.91-.38,1.49-.53.58-.15,1.2-.22,1.84-.22,1.41,0,2.44.32,3.1.94.66.63.99,1.58.99,2.84v3.77Z"/>
      </g>
    </g>
    <g id="private.subnet">
      <rect class="cls-4" x="356.91" y="121.91" width="674" height="570"/>
      <g id="Icon-Architecture-Group_32_Private-subnet_32" data-name="Icon-Architecture-Group/32/Private-subnet_32">
        <rect id="Rectangle-3" data-name="Rectangle" class="cls-12" x="357.23" y="121.19" width="50" height="50"/>
        <path id="Fill-1-3" data-name="Fill-1" class="cls-16" d="M381.65,148.75c1.38,0,2.51,1.12,2.51,2.51s-1.12,2.51-2.51,2.51-2.51-1.12-2.51-2.51,1.12-2.51,2.51-2.51h0ZM381,154.95v4.37h1.25v-4.36c1.79-.29,3.16-1.83,3.16-3.7,0-2.07-1.69-3.76-3.76-3.76s-3.76,1.68-3.76,3.76c0,1.85,1.34,3.38,3.1,3.69h0ZM369.73,162.46h23.76v-18.77h-23.76v18.77ZM374.79,136.79c0-3.78,3.08-6.86,6.85-6.86s6.85,3.08,6.85,6.86v5.64h-13.71v-5.64ZM394.12,142.44h-4.38v-5.64c0-4.47-3.64-8.11-8.1-8.11s-8.1,3.63-8.1,8.11v5.64h-4.43c-.35,0-.63.28-.63.62v20.02c0,.35.28.62.63.62h25.01c.35,0,.62-.28.62-.62v-20.02c0-.34-.28-.62-.62-.62h0Z"/>
      </g>
      <text class="cls-22" transform="translate(417.35 154.38)"><tspan x="0" y="0">Pri</tspan><tspan class="cls-24" x="20.9" y="0">v</tspan><tspan x="29.21" y="0">ate Subnet</tspan></text>
      <text class="cls-20" transform="translate(1093.34 228.39)"><tspan class="cls-26" x="0" y="0">A</tspan><tspan x="8.88" y="0">WS Cloud Map</tspan></text>
    </g>
    <g>
      <g id="public.subnet">
        <g class="cls-18">
          <rect class="cls-6" x="142.41" y="121.41" width="200.5" height="571.5"/>
        </g>
        <g id="Icon-Architecture-Group_32_Public-subnet_32" data-name="Icon-Architecture-Group/32/Public-subnet_32">
          <rect id="Rectangle-4" data-name="Rectangle" class="cls-13" x="142.21" y="120.47" width="50" height="50"/>
          <path id="Fill-1-4" data-name="Fill-1" class="cls-16" d="M166.63,148.03c1.38,0,2.51,1.12,2.51,2.51s-1.12,2.51-2.51,2.51-2.51-1.12-2.51-2.51,1.12-2.51,2.51-2.51h0ZM165.98,154.23v4.37h1.25v-4.36c1.79-.29,3.16-1.83,3.16-3.7,0-2.07-1.69-3.76-3.76-3.76s-3.76,1.68-3.76,3.76c0,1.85,1.34,3.38,3.1,3.69h0ZM154.71,161.73h23.76v-18.77h-23.76v18.77ZM159.77,136.07c0-3.78,3.08-6.86,6.85-6.86s6.85,3.08,6.85,6.86v5.64h-13.71v-5.64ZM179.1,141.72h-4.38v-5.64c0-4.47-3.64-8.11-8.1-8.11s-8.1,3.63-8.1,8.11v5.64h-4.43c-.35,0-.62.28-.62.62v20.02c0,.35.28.62.62.62h25.01c.35,0,.62-.28.62-.62v-20.02c0-.34-.28-.62-.62-.62h0Z"/>
        </g>
        <text class="cls-19" transform="translate(200.05 156.38)"><tspan x="0" y="0">Public Subnet</tspan></text>
      </g>
      <g id="Icon-Resource_Networking-and-Content-Delivery_Res_Elastic-Load-Balancing_Application-Load-Balancer_48" data-name="Icon-Resource/Networking-and-Content-Delivery/Res_Elastic-Load-Balancing_Application-Load-Balancer_48">
        <path id="AWS-Elastic-Load-Balancing_-Application-Load-Balancer_Resource-Icon_light-bg" data-name="AWS-Elastic-Load-Balancing -Application-Load-Balancer Resource-Icon light-bg" class="cls-11" d="M269.58,374.17h5.33v-5.4h-5.33v5.4ZM253.81,374.17h5.4v-5.4h-5.4v5.4ZM235.91,374.17h5.4v-5.4h-5.4v5.4ZM220.21,374.17h5.19v-5.4h-5.19v5.4ZM233.92,334.39h27.27v-13.35h-27.27v13.35ZM277.18,364.22h-3.49v-7.67c0-1.26-1.02-2.27-2.27-2.27h-5.68v-7.67c0-1.26-1.02-2.27-2.27-2.27h-13.64v-5.4h13.64c1.25,0,2.27-1.02,2.27-2.27v-17.9c0-1.26-1.02-2.27-2.27-2.27h-31.82c-1.26,0-2.27,1.02-2.27,2.27v17.9c0,1.26,1.02,2.27,2.27,2.27h13.64v5.4h-13.64c-1.26,0-2.27,1.02-2.27,2.27v7.67h-5.68c-1.26,0-2.27,1.02-2.27,2.27v7.67h-3.49c-1.25,0-2.27,1.02-2.27,2.27v9.94c0,1.26,1.02,2.27,2.27,2.27h9.74c1.25,0,2.27-1.02,2.27-2.27v-9.94c0-1.26-1.02-2.27-2.27-2.27h-1.7v-5.4h9.37v5.4h-1.7c-1.26,0-2.27,1.02-2.27,2.27v9.94c0,1.26,1.02,2.27,2.27,2.27h9.94c1.25,0,2.27-1.02,2.27-2.27v-9.94c0-1.26-1.02-2.27-2.27-2.27h-3.69v-7.67c0-1.26-1.02-2.27-2.27-2.27h-3.69v-5.4h27.27v5.4h-3.69c-1.26,0-2.27,1.02-2.27,2.27v7.67h-3.69c-1.26,0-2.27,1.02-2.27,2.27v9.94c0,1.26,1.02,2.27,2.27,2.27h9.94c1.25,0,2.27-1.02,2.27-2.27v-9.94c0-1.26-1.02-2.27-2.27-2.27h-1.7v-5.4h9.37v5.4h-1.84c-1.26,0-2.27,1.02-2.27,2.27v9.94c0,1.26,1.02,2.27,2.27,2.27h9.87c1.25,0,2.27-1.02,2.27-2.27v-9.94c0-1.26-1.02-2.27-2.27-2.27h0ZM247.56,396.04c-25.07,0-45.46-20.39-45.46-45.45s20.39-45.45,45.46-45.45,45.45,20.39,45.45,45.45-20.39,45.45-45.45,45.45h0ZM247.56,300.59c-27.57,0-50,22.43-50,50s22.43,50,50,50,50-22.43,50-50-22.43-50-50-50h0Z"/>
      </g>
    </g>
  </g>
  <g id="ECS">
    <g>
      <rect class="cls-1" x="74.91" y="185.91" width="728" height="492"/>
      <g id="Icon-Architecture_64_Arch_Amazon-Elastic-Container-Service_64" data-name="Icon-Architecture/64/Arch_Amazon-Elastic-Container-Service_64">
        <g id="Icon-Architecture-BG_64_Compute" data-name="Icon-Architecture-BG/64/Compute">
          <rect id="Rectangle-5" data-name="Rectangle" class="cls-10" x="74.71" y="185.26" width="50" height="50"/>
        </g>
        <path id="Amazon-Elastic-Container-Service_Icon_64_Squid" data-name="Amazon-Elastic-Container-Service Icon 64 Squid" class="cls-16" d="M114.71,215.41l-5-3v-7.15c0-.22-.12-.43-.31-.54l-7.19-4.19v-6.05l12.5,7.39v13.54ZM115.65,200.97l-13.75-8.12c-.19-.11-.43-.12-.63,0-.19.11-.32.32-.32.54v7.5c0,.22.12.43.31.54l7.19,4.19v7.14c0,.22.12.42.3.54l6.25,3.75c.1.06.21.09.32.09s.21-.03.31-.08c.2-.11.32-.32.32-.54v-15c0-.22-.12-.43-.31-.54h0ZM99.99,227.05l-14.65-7.79v-17.39l12.5-7.39v6.06l-6.59,4.19c-.18.12-.29.31-.29.53v10.62c0,.23.13.45.34.55l8.41,4.37c.18.09.4.09.58,0l8.16-4.21,5.02,3.01-13.47,7.44ZM115.03,219.1l-6.25-3.75c-.19-.11-.42-.12-.61-.02l-8.18,4.23-7.78-4.05v-9.9l6.59-4.19c.18-.12.29-.31.29-.53v-7.5c0-.22-.12-.43-.32-.54-.2-.11-.43-.11-.63,0l-13.75,8.12c-.19.11-.31.32-.31.54v18.12c0,.23.13.44.33.55l15.28,8.12c.09.05.19.07.29.07s.21-.03.3-.08l14.72-8.12c.2-.11.32-.31.32-.54,0-.22-.11-.43-.3-.55h0Z"/>
      </g>
      <text class="cls-17" transform="translate(83.75 264.11)"><tspan x="0" y="0">Cluster</tspan></text>
    </g>
    <g>
      <g>
        <g>
          <rect class="cls-8" x="394.61" y="461.7" width="165.13" height="175.86"/>
          <g id="Icon-Resource_Containers_Res_Amazon-Elastic-Container-Service_Service_48" data-name="Icon-Resource/Containers/Res_Amazon-Elastic-Container-Service_Service_48">
            <path id="Amazon-Elastic-Container-Service_Service_Resource-Icon_light-bg" data-name="Amazon-Elastic-Container-Service Service Resource-Icon light-bg" class="cls-9" d="M486.24,591.19h29.57v-4.64h-29.57v4.64ZM486.24,568.19h29.57v-4.64h-29.57v4.64ZM486.24,545.19h29.57v-4.64h-29.57v4.64ZM473.77,591.48h5.21v-5.21h-5.21v5.21ZM471.45,596.12h9.86c1.28,0,2.32-1.04,2.32-2.32v-9.86c0-1.28-1.04-2.32-2.32-2.32h-9.86c-1.28,0-2.32,1.04-2.32,2.32v9.86c0,1.28,1.04,2.32,2.32,2.32h0ZM473.77,568.48h5.21v-5.21h-5.21v5.21ZM471.45,573.12h9.86c1.28,0,2.32-1.04,2.32-2.32v-9.86c0-1.28-1.04-2.32-2.32-2.32h-9.86c-1.28,0-2.32,1.04-2.32,2.32v9.86c0,1.28,1.04,2.32,2.32,2.32h0ZM473.77,545.48h5.21v-5.21h-5.21v5.21ZM471.45,550.12h9.86c1.28,0,2.32-1.04,2.32-2.32v-9.86c0-1.28-1.04-2.32-2.32-2.32h-9.86c-1.28,0-2.32,1.04-2.32,2.32v9.86c0,1.28,1.04,2.32,2.32,2.32h0ZM465.56,604.62h54.5v-74.21h-54.5v74.21ZM460.92,528.08v66.68h-5.21v-74.21h54.5v5.21h-46.97c-1.28,0-2.32,1.04-2.32,2.32h0ZM451.06,518.23v67.77h-4.12v-74.21h54.5v4.12h-48.06c-1.28,0-2.32,1.04-2.32,2.32h0ZM522.38,525.76h-7.54v-7.54c0-1.28-1.04-2.32-2.32-2.32h-6.44v-6.44c0-1.28-1.04-2.32-2.32-2.32h-59.14c-1.28,0-2.32,1.04-2.32,2.32v78.86c0,1.28,1.04,2.32,2.32,2.32h6.44v6.44c0,1.28,1.04,2.32,2.32,2.32h7.54v7.54c0,1.28,1.04,2.32,2.32,2.32h59.14c1.28,0,2.32-1.04,2.32-2.32v-78.85c0-1.28-1.04-2.32-2.32-2.32h0Z"/>
          </g>
          <text class="cls-21" transform="translate(416.57 494.1)"><tspan x="0" y="0">Database Se</tspan><tspan class="cls-25" x="76.26" y="0">r</tspan><tspan class="cls-23" x="82.18" y="0">vice</tspan></text>
        </g>
        <g>
          <rect class="cls-8" x="394.59" y="264.7" width="165.13" height="175.86"/>
          <g id="Icon-Resource_Containers_Res_Amazon-Elastic-Container-Service_Service_48-2" data-name="Icon-Resource/Containers/Res_Amazon-Elastic-Container-Service_Service_48">
            <path id="Amazon-Elastic-Container-Service_Service_Resource-Icon_light-bg-2" data-name="Amazon-Elastic-Container-Service Service Resource-Icon light-bg" class="cls-9" d="M479.14,398.21h29.54v-4.64h-29.54v4.64ZM479.14,375.23h29.54v-4.64h-29.54v4.64ZM479.14,352.26h29.54v-4.64h-29.54v4.64ZM466.69,398.5h5.21v-5.21h-5.21v5.21ZM464.37,403.13h9.85c1.28,0,2.32-1.04,2.32-2.32v-9.85c0-1.28-1.04-2.32-2.32-2.32h-9.85c-1.28,0-2.32,1.04-2.32,2.32v9.85c0,1.28,1.04,2.32,2.32,2.32h0ZM466.69,375.52h5.21v-5.21h-5.21v5.21ZM464.37,380.16h9.85c1.28,0,2.32-1.04,2.32-2.32v-9.85c0-1.28-1.04-2.32-2.32-2.32h-9.85c-1.28,0-2.32,1.04-2.32,2.32v9.85c0,1.28,1.04,2.32,2.32,2.32h0ZM466.69,352.55h5.21v-5.21h-5.21v5.21ZM464.37,357.19h9.85c1.28,0,2.32-1.04,2.32-2.32v-9.85c0-1.28-1.04-2.32-2.32-2.32h-9.85c-1.28,0-2.32,1.04-2.32,2.32v9.85c0,1.28,1.04,2.32,2.32,2.32h0ZM458.49,411.62h54.44v-74.13h-54.44v74.13ZM453.85,335.18v66.6h-5.21v-74.13h54.44v5.21h-46.91c-1.28,0-2.32,1.04-2.32,2.32h0ZM444,325.33v67.7h-4.11v-74.13h54.44v4.12h-48c-1.28,0-2.32,1.04-2.32,2.32h0ZM515.24,332.86h-7.53v-7.53c0-1.28-1.04-2.32-2.32-2.32h-6.44v-6.44c0-1.28-1.04-2.32-2.32-2.32h-59.07c-1.28,0-2.32,1.04-2.32,2.32v78.77c0,1.28,1.04,2.32,2.32,2.32h6.43v6.43c0,1.28,1.04,2.32,2.32,2.32h7.53v7.53c0,1.28,1.04,2.32,2.32,2.32h59.08c1.28,0,2.32-1.04,2.32-2.32v-78.76c0-1.28-1.04-2.32-2.32-2.32h0Z"/>
          </g>
          <text class="cls-21" transform="translate(417.57 299.97)"><tspan x="0" y="0">Application Se</tspan><tspan class="cls-25" x="88.16" y="0">r</tspan><tspan class="cls-23" x="94.08" y="0">vice</tspan></text>
        </g>
      </g>
      <g>
        <g>
          <rect class="cls-8" x="610.18" y="464.54" width="165.13" height="175.86"/>
          <g id="Icon-Resource_Containers_Res_Amazon-Elastic-Container-Service_Task_48" data-name="Icon-Resource/Containers/Res_Amazon-Elastic-Container-Service_Task_48">
            <path id="Amazon-Elastic-Container-Service_Task_Resource-Icon_light-bg" data-name="Amazon-Elastic-Container-Service Task Resource-Icon light-bg" class="cls-9" d="M683.91,593.65h35.22v-4.47h-35.22v4.47ZM683.91,566.25h35.22v-4.47h-35.22v4.47ZM683.91,538.86h35.22v-4.47h-35.22v4.47ZM668.53,595.05h7.27v-7.27h-7.27v7.27ZM666.3,599.52h11.74c1.24,0,2.24-1,2.24-2.24v-11.74c0-1.23-1-2.24-2.24-2.24h-11.74c-1.24,0-2.24,1-2.24,2.24v11.74c0,1.24,1,2.24,2.24,2.24h0ZM668.53,567.65h7.27v-7.27h-7.27v7.27ZM666.3,572.12h11.74c1.24,0,2.24-1,2.24-2.24v-11.74c0-1.23-1-2.24-2.24-2.24h-11.74c-1.24,0-2.24,1-2.24,2.24v11.74c0,1.24,1,2.24,2.24,2.24h0ZM668.53,540.25h7.27v-7.27h-7.27v7.27ZM666.3,544.73h11.74c1.24,0,2.24-1,2.24-2.24v-11.74c0-1.23-1-2.24-2.24-2.24h-11.74c-1.24,0-2.24,1-2.24,2.24v11.74c0,1.24,1,2.24,2.24,2.24h0ZM658.75,610.7h65.97v-89.46h-65.97v89.46ZM726.96,516.77h-70.45c-1.24,0-2.24,1-2.24,2.24v93.93c0,1.24,1,2.24,2.24,2.24h70.45c1.24,0,2.24-1,2.24-2.24v-93.93c0-1.23-1-2.24-2.24-2.24h0Z"/>
          </g>
          <text class="cls-21" transform="translate(632.14 496.94)"><tspan x="0" y="0">Database task</tspan></text>
        </g>
        <g>
          <rect class="cls-8" x="612.16" y="264.55" width="165.13" height="175.86"/>
          <text class="cls-21" transform="translate(635.14 299.82)"><tspan x="0" y="0">Application task</tspan></text>
        </g>
        <g id="Icon-Resource_Containers_Res_Amazon-Elastic-Container-Service_Task_48-2" data-name="Icon-Resource/Containers/Res_Amazon-Elastic-Container-Service_Task_48">
          <path id="Amazon-Elastic-Container-Service_Task_Resource-Icon_light-bg-2" data-name="Amazon-Elastic-Container-Service Task Resource-Icon light-bg" class="cls-9" d="M684.62,397.85h35.22v-4.47h-35.22v4.47ZM684.62,370.45h35.22v-4.47h-35.22v4.47ZM684.62,343.06h35.22v-4.47h-35.22v4.47ZM669.24,399.25h7.27v-7.27h-7.27v7.27ZM667.01,403.72h11.74c1.24,0,2.24-1,2.24-2.24v-11.74c0-1.23-1-2.24-2.24-2.24h-11.74c-1.24,0-2.24,1-2.24,2.24v11.74c0,1.24,1,2.24,2.24,2.24h0ZM669.24,371.85h7.27v-7.27h-7.27v7.27ZM667.01,376.32h11.74c1.24,0,2.24-1,2.24-2.24v-11.74c0-1.23-1-2.24-2.24-2.24h-11.74c-1.24,0-2.24,1-2.24,2.24v11.74c0,1.24,1,2.24,2.24,2.24h0ZM669.24,344.45h7.27v-7.27h-7.27v7.27ZM667.01,348.93h11.74c1.24,0,2.24-1,2.24-2.24v-11.74c0-1.23-1-2.24-2.24-2.24h-11.74c-1.24,0-2.24,1-2.24,2.24v11.74c0,1.24,1,2.24,2.24,2.24h0ZM659.46,414.9h65.97v-89.46h-65.97v89.46ZM727.67,320.97h-70.45c-1.24,0-2.24,1-2.24,2.24v93.93c0,1.24,1,2.24,2.24,2.24h70.45c1.24,0,2.24-1,2.24-2.24v-93.93c0-1.23-1-2.24-2.24-2.24h0Z"/>
        </g>
      </g>
    </g>
    <g>
      <g>
        <rect class="cls-8" x="838" y="265.77" width="165.13" height="175.86"/>
        <text class="cls-21" transform="translate(854.98 300.05)"><tspan x="0" y="0">Application reposito</tspan><tspan class="cls-25" x="123.02" y="0">r</tspan><tspan class="cls-23" x="128.94" y="0">y</tspan></text>
        <g id="Icon-Resource_Containers_Res_Amazon-Elastic-Container-Registry_Registry_48" data-name="Icon-Resource/Containers/Res_Amazon-Elastic-Container-Registry_Registry_48">
          <path id="Amazon-Elastic-Container-Registry-Registry_Resource-Icon_light-bg" data-name="Amazon-Elastic-Container-Registry-Registry Resource-Icon light-bg" class="cls-9" d="M944.43,405.51h4.55v-7.95h-4.55v7.95ZM936.47,405.51h4.55v-7.95h-4.55v7.95ZM928.52,405.51h4.55v-7.95h-4.55v7.95ZM925.12,409.21h27.26v-15.34h-27.26v15.34ZM954.66,389.32h-31.82c-1.26,0-2.28,1.02-2.28,2.28v19.89c0,1.26,1.02,2.28,2.28,2.28h31.82c1.26,0,2.28-1.02,2.28-2.28v-19.89c0-1.26-1.02-2.28-2.28-2.28h0ZM944.43,377.68h4.55v-7.96h-4.55v7.96ZM936.47,377.68h4.55v-7.96h-4.55v7.96ZM928.52,377.68h4.55v-7.96h-4.55v7.96ZM925.12,381.37h27.26v-15.33h-27.26v15.33ZM954.66,361.48h-31.82c-1.26,0-2.28,1.02-2.28,2.28v19.88c0,1.26,1.02,2.28,2.28,2.28h31.82c1.26,0,2.28-1.02,2.28-2.28v-19.88c0-1.26-1.02-2.28-2.28-2.28h0ZM944.43,349.84h4.55v-7.95h-4.55v7.95ZM936.47,349.84h4.55v-7.95h-4.55v7.95ZM928.52,349.84h4.55v-7.95h-4.55v7.95ZM925.12,353.53h27.26v-15.34h-27.26v15.34ZM954.66,333.64h-31.82c-1.26,0-2.28,1.02-2.28,2.28v19.89c0,1.26,1.02,2.28,2.28,2.28h31.82c1.26,0,2.28-1.02,2.28-2.28v-19.89c0-1.26-1.02-2.28-2.28-2.28h0ZM904.66,405.51h4.55v-7.95h-4.55v7.95ZM896.7,405.51h4.55v-7.95h-4.55v7.95ZM888.75,405.51h4.55v-7.95h-4.55v7.95ZM885.35,409.21h27.26v-15.34h-27.26v15.34ZM914.89,389.32h-31.81c-1.26,0-2.28,1.02-2.28,2.28v19.89c0,1.26,1.02,2.28,2.28,2.28h31.81c1.26,0,2.28-1.02,2.28-2.28v-19.89c0-1.26-1.02-2.28-2.28-2.28h0ZM904.66,377.68h4.55v-7.96h-4.55v7.96ZM896.7,377.68h4.55v-7.96h-4.55v7.96ZM888.75,377.68h4.55v-7.96h-4.55v7.96ZM885.35,381.37h27.26v-15.33h-27.26v15.33ZM914.89,361.48h-31.81c-1.26,0-2.28,1.02-2.28,2.28v19.88c0,1.26,1.02,2.28,2.28,2.28h31.81c1.26,0,2.28-1.02,2.28-2.28v-19.88c0-1.26-1.02-2.28-2.28-2.28h0ZM904.66,349.84h4.55v-7.95h-4.55v7.95ZM896.7,349.84h4.55v-7.95h-4.55v7.95ZM888.75,349.84h4.55v-7.95h-4.55v7.95ZM885.35,353.53h27.26v-15.34h-27.26v15.34ZM914.89,333.64h-31.81c-1.26,0-2.28,1.02-2.28,2.28v19.89c0,1.26,1.02,2.28,2.28,2.28h31.81c1.26,0,2.28-1.02,2.28-2.28v-19.89c0-1.26-1.02-2.28-2.28-2.28h0ZM964.31,409.03c0,5.58-4.54,10.12-10.12,10.12h-70.65c-5.58,0-10.12-4.54-10.12-10.12v-70.65c0-5.58,4.54-10.12,10.12-10.12h70.65c5.58,0,10.12,4.54,10.12,10.12v70.65ZM954.19,323.7h-70.65c-8.09,0-14.67,6.58-14.67,14.67v70.65c0,8.09,6.58,14.67,14.67,14.67h70.65c8.09,0,14.67-6.58,14.67-14.67v-70.65c0-8.09-6.58-14.67-14.67-14.67h0Z"/>
        </g>
      </g>
      <g>
        <rect class="cls-3" x="838" y="464.77" width="165.13" height="175.86"/>
        <text class="cls-21" transform="translate(859.96 497.17)"><tspan x="0" y="0">Database reposito</tspan><tspan class="cls-25" x="111.12" y="0">r</tspan><tspan class="cls-23" x="117.04" y="0">y</tspan></text>
        <g id="Icon-Resource_Containers_Res_Amazon-Elastic-Container-Registry_Registry_48-2" data-name="Icon-Resource/Containers/Res_Amazon-Elastic-Container-Registry_Registry_48">
          <path id="Amazon-Elastic-Container-Registry-Registry_Resource-Icon_light-bg-2" data-name="Amazon-Elastic-Container-Registry-Registry Resource-Icon light-bg" class="cls-9" d="M945.12,597.51h4.55v-7.95h-4.55v7.95ZM937.17,597.51h4.55v-7.95h-4.55v7.95ZM929.21,597.51h4.55v-7.95h-4.55v7.95ZM925.81,601.21h27.26v-15.34h-27.26v15.34ZM955.35,581.32h-31.82c-1.26,0-2.28,1.02-2.28,2.28v19.89c0,1.26,1.02,2.28,2.28,2.28h31.82c1.26,0,2.28-1.02,2.28-2.28v-19.89c0-1.26-1.02-2.28-2.28-2.28h0ZM945.12,569.68h4.55v-7.96h-4.55v7.96ZM937.17,569.68h4.55v-7.96h-4.55v7.96ZM929.21,569.68h4.55v-7.96h-4.55v7.96ZM925.81,573.37h27.26v-15.33h-27.26v15.33ZM955.35,553.48h-31.82c-1.26,0-2.28,1.02-2.28,2.28v19.88c0,1.26,1.02,2.28,2.28,2.28h31.82c1.26,0,2.28-1.02,2.28-2.28v-19.88c0-1.26-1.02-2.28-2.28-2.28h0ZM945.12,541.84h4.55v-7.95h-4.55v7.95ZM937.17,541.84h4.55v-7.95h-4.55v7.95ZM929.21,541.84h4.55v-7.95h-4.55v7.95ZM925.81,545.53h27.26v-15.34h-27.26v15.34ZM955.35,525.64h-31.82c-1.26,0-2.28,1.02-2.28,2.28v19.89c0,1.26,1.02,2.28,2.28,2.28h31.82c1.26,0,2.28-1.02,2.28-2.28v-19.89c0-1.26-1.02-2.28-2.28-2.28h0ZM905.35,597.51h4.55v-7.95h-4.55v7.95ZM897.4,597.51h4.55v-7.95h-4.55v7.95ZM889.44,597.51h4.55v-7.95h-4.55v7.95ZM886.04,601.21h27.26v-15.34h-27.26v15.34ZM915.58,581.32h-31.81c-1.26,0-2.28,1.02-2.28,2.28v19.89c0,1.26,1.02,2.28,2.28,2.28h31.81c1.26,0,2.28-1.02,2.28-2.28v-19.89c0-1.26-1.02-2.28-2.28-2.28h0ZM905.35,569.68h4.55v-7.96h-4.55v7.96ZM897.4,569.68h4.55v-7.96h-4.55v7.96ZM889.44,569.68h4.55v-7.96h-4.55v7.96ZM886.04,573.37h27.26v-15.33h-27.26v15.33ZM915.58,553.48h-31.81c-1.26,0-2.28,1.02-2.28,2.28v19.88c0,1.26,1.02,2.28,2.28,2.28h31.81c1.26,0,2.28-1.02,2.28-2.28v-19.88c0-1.26-1.02-2.28-2.28-2.28h0ZM905.35,541.84h4.55v-7.95h-4.55v7.95ZM897.4,541.84h4.55v-7.95h-4.55v7.95ZM889.44,541.84h4.55v-7.95h-4.55v7.95ZM886.04,545.53h27.26v-15.34h-27.26v15.34ZM915.58,525.64h-31.81c-1.26,0-2.28,1.02-2.28,2.28v19.89c0,1.26,1.02,2.28,2.28,2.28h31.81c1.26,0,2.28-1.02,2.28-2.28v-19.89c0-1.26-1.02-2.28-2.28-2.28h0ZM965,601.03c0,5.58-4.54,10.12-10.12,10.12h-70.65c-5.58,0-10.12-4.54-10.12-10.12v-70.65c0-5.58,4.54-10.12,10.12-10.12h70.65c5.58,0,10.12,4.54,10.12,10.12v70.65ZM954.88,515.7h-70.65c-8.09,0-14.67,6.58-14.67,14.67v70.65c0,8.09,6.58,14.67,14.67,14.67h70.65c8.09,0,14.67-6.58,14.67-14.67v-70.65c0-8.09-6.58-14.67-14.67-14.67h0Z"/>
        </g>
      </g>
      <g>
        <rect class="cls-7" x="827.63" y="186.91" width="185.27" height="492"/>
        <g id="Icon-Architecture_64_Arch_Amazon-Elastic-Container-Registry_64" data-name="Icon-Architecture/64/Arch_Amazon-Elastic-Container-Registry_64">
          <g id="Icon-Architecture-BG_64_Compute-2" data-name="Icon-Architecture-BG/64/Compute">
            <rect id="Rectangle-6" data-name="Rectangle" class="cls-10" x="826.87" y="185.7" width="50" height="50"/>
          </g>
          <path id="Amazon-Elastic-Container-Registry_Icon_64_Squid" data-name="Amazon-Elastic-Container-Registry Icon 64 Squid" class="cls-16" d="M851.11,209.18c-.31.18-.5.51-.5.87v17.34l-13.12-7.33v-17.05l14.72-8.53,13.08,6.48-14.19,8.22ZM866.82,200.95c0-.36-.19-.69-.54-.89l-13.57-6.73c-.31-.18-.69-.18-1,0l-14.96,8.67c-.31.18-.5.51-.5.87v17.33c0,.36.19.69.51.88l13.6,7.6c.15.09.33.13.5.13s.35-.04.5-.13c.31-.18.5-.51.5-.87v-17.62l14.46-8.38c.31-.18.5-.51.5-.87h0ZM866.85,220.1l-11.87,7.26v-6.5l6.19-3.99.04-.28c.01-.07.02-.07.02-.41l.02-7.75,5.62-3.26-.02,14.94ZM867.61,203.87c-.31-.18-.7-.18-1,0l-5.98,3.47c-.19.1-.63.34-.63.84l-.02,7.97-5.7,3.68c-.34.2-.54.52-.54.86v7.07c0,.35.19.68.51.86.17.1.35.14.54.14s.36-.05.53-.14l12.29-7.52c.31-.18.5-.51.5-.87l.02-15.5c0-.36-.19-.69-.5-.87h0Z"/>
        </g>
        <text class="cls-17" transform="translate(885.66 217.23)"><tspan x="0" y="0">ECR</tspan></text>
      </g>
    </g>
    <g id="Icon-Architecture_64_Arch_AWS-Cloud-Map_64" data-name="Icon-Architecture/64/Arch_AWS-Cloud-Map_64">
      <g id="Icon-Architecture-BG_64_Networking-Content-Delivery" data-name="Icon-Architecture-BG/64/Networking-Content-Delivery">
        <rect id="Rectangle-7" data-name="Rectangle" class="cls-14" x="1110.57" y="119.02" width="80" height="80"/>
      </g>
      <path id="AWS-Cloud-Map_Icon_64_Squid" data-name="AWS-Cloud-Map Icon 64 Squid" class="cls-16" d="M1148.5,167.91h5.07v-5.06h-5.07v5.06ZM1154.58,160.83h-7.07c-.55,0-1,.45-1,1.01v7.08c0,.56.45,1.01,1,1.01h7.07c.55,0,1-.45,1-1.01v-7.08c0-.56-.45-1.01-1-1.01h0ZM1168.5,176h-7.93v-11.13h15.8c.12.62.19,1.29.19,2.02,0,7.91-7.35,9.02-8.07,9.11h0ZM1132.38,175.7l9.19-8.53v8.8h-7.95c-.42-.07-.83-.16-1.24-.27h0ZM1124.58,166.56v-.27c0-4.54,2.07-7.4,6.13-8.5h10.87v1.56l-14.65,12.97c-1.35-1.55-2.22-3.46-2.35-5.5,0-.12,0-.19,0-.27h0ZM1139.4,143.08c.72-.31,1.45-.54,2.18-.71v7.32h-8.71c1.4-2.9,3.8-5.45,6.53-6.62h0ZM1148.58,172.97h5v3.02h-5v-3.02ZM1170.9,156.35l-.66,1.91c1.68.59,4.16,1.89,5.46,4.59h-16.13c-.55,0-1,.45-1,1.01v12.13h-3v-4.04c0-.56-.45-1.01-1-1.01h-7c-.55,0-1,.45-1,1.01v4.02h-3v-11.11c0-.4-.23-.76-.6-.93-.36-.16-.79-.09-1.08.18l-11.63,10.78c-.67-.34-1.3-.74-1.88-1.19l14.84-13.14c.22-.19.34-.47.34-.76v-3.04c0-.56-.45-1.01-1-1.01h-11.02c0-.08,0-.15,0-.23,0-.22.01-.44.01-.64,0-1.04.18-2.12.5-3.17h10.5c.55,0,1-.45,1-1.01v-8.62c1.01-.06,2.01.01,3,.2v16.51c0,.56.45,1.01,1,1.01h7c.55,0,1-.45,1-1.01v-6.07h-2v5.06h-5v-14.93c1.89.71,3.69,1.88,5.29,3.51l1.42-1.43c-4.71-4.78-10.94-6.17-16.67-3.72-5.07,2.17-9.04,8.18-9.04,13.68,0,.18,0,.37-.01.57,0,.18-.01.37-.01.56-2.91.96-6.97,3.51-6.97,10.26v.21c0,.14,0,.25,0,.46.34,5.47,5,10.21,10.83,11.02.04,0,.09,0,.14,0l13.92.02s.07.02.11.02h7s.05-.01.07-.02l13.91.02h0s.07,0,.1,0c.1-.01,9.91-1.14,9.91-11.12,0-7.09-5.36-9.74-7.67-10.55h0ZM1161.58,148.68c0-1,1.01-2.02,2-2.02s2,1.02,2,2.02-1.01,2.02-2,2.02-2-1.02-2-2.02h0ZM1167.58,148.68c0-2.12-1.91-4.05-4-4.05s-4,1.93-4,4.05,1.91,4.05,4,4.05,4-1.93,4-4.05h0ZM1163.58,143.63c2.85,0,5,2.17,5,5.06,0,2.21-3.1,7.42-5,10.34-1.9-2.91-5-8.13-5-10.34,0-2.88,2.15-5.06,5-5.06h0ZM1163.58,161.84c.33,0,.63-.16.82-.43.63-.92,6.18-9.05,6.18-12.72,0-4.04-3.01-7.08-7-7.08s-7,3.04-7,7.08c0,3.67,5.55,11.8,6.18,12.72.19.27.49.43.82.43h0Z"/>
    </g>
  </g>
</svg>